<svg width="124" height="88" viewBox="0 0 124 88" fill="none" xmlns="http://www.w3.org/2000/svg">
<path d="M123.25 30.875C123.25 39.1039 121.661 47.0376 118.529 54.4506C108.719 78.0515 94.8851 87.7071 70.8012 87.75C70.7968 87.75 70.7968 87.75 70.7924 87.75C68.7073 87.75 66.9131 86.2804 66.5027 84.2382C66.0924 82.1916 67.1822 80.141 69.1089 79.3378C80.6533 74.527 84.1222 68.8916 88.1857 57.1254H79.5C72.2624 57.1254 66.375 51.238 66.375 44.0004V13.375C66.375 6.13744 72.2624 0.25 79.5 0.25H109.907C111.394 0.25 112.782 1.00644 113.586 2.25813C119.422 11.3284 123.25 18.2199 123.25 30.875ZM44.2821 0.25H13.875C6.63744 0.25 0.75 6.13744 0.75 13.375V44C0.75 51.2376 6.63744 57.125 13.875 57.125H22.5611C18.4981 68.8916 15.0287 74.5266 3.48438 79.3373C1.55762 80.1406 0.467812 82.1911 0.878187 84.2378C1.28812 86.2804 3.08275 87.75 5.16787 87.75H5.17663C29.2606 87.7071 43.0947 78.0515 52.9044 54.4506C56.0356 47.0376 57.625 39.1039 57.625 30.875C57.625 18.2199 53.7969 11.3284 47.9606 2.25813C47.1574 1.00644 45.7687 0.25 44.2821 0.25Z" fill="white" fill-opacity="0.1"/>
</svg>
