<svg width="21" height="14" viewBox="0 0 21 14" fill="none" xmlns="http://www.w3.org/2000/svg">
<path d="M20.125 4.9375C20.125 6.23062 19.8752 7.47733 19.3831 8.64223C17.8416 12.351 15.6677 13.8683 11.883 13.875H11.8817C11.554 13.875 11.2721 13.6441 11.2076 13.3231C11.1431 13.0015 11.3143 12.6793 11.6171 12.5531C13.4312 11.7971 13.9763 10.9115 14.6149 9.06257H13.25C12.1127 9.06257 11.1875 8.1374 11.1875 7.00007V2.1875C11.1875 1.05017 12.1127 0.125 13.25 0.125H18.0283C18.2619 0.125 18.4801 0.243869 18.6063 0.440563C19.5234 1.86589 20.125 2.94884 20.125 4.9375ZM7.71576 0.125H2.9375C1.80017 0.125 0.875 1.05017 0.875 2.1875V7C0.875 8.13733 1.80017 9.0625 2.9375 9.0625H4.30246C3.66398 10.9115 3.11879 11.797 1.30469 12.553C1.00191 12.6792 0.830656 13.0015 0.895144 13.3231C0.959562 13.6441 1.24157 13.875 1.56924 13.875H1.57061C5.35523 13.8683 7.52917 12.351 9.07069 8.64223C9.56273 7.47733 9.8125 6.23062 9.8125 4.9375C9.8125 2.94884 9.21094 1.86589 8.29381 0.440563C8.16759 0.243869 7.94938 0.125 7.71576 0.125Z" fill="white"/>
</svg>
