<?xml version="1.0" encoding="UTF-8"?>
<svg id="Layer_2" data-name="Layer 2" xmlns="http://www.w3.org/2000/svg" viewBox="0 0 49.9 50.05">
  <defs>
    <style>
      .cls-1 {
        fill: #fff;
      }
    </style>
  </defs>
  <g id="Layer_1-2" data-name="Layer 1">
    <path class="cls-1" d="m49.89,31.34h-.38c-8.15,0-16.3,0-24.44,0-.16,0-.32,0-.47-.06-.13-.06-.28.02-.44-.06-.14-.07-.33-.03-.5-.08-.28-.08-.55-.17-.82-.27-.2-.07-.39-.15-.58-.25-.48-.24-.91-.54-1.3-.91-.37-.35-.69-.74-.96-1.17-.26-.42-.49-.86-.67-1.33-.12-.31-.2-.63-.31-.94-.05-.15-.07-.3-.11-.46-.02-.11-.05-.22-.07-.33-.02-.11.04-.24-.07-.33-.01,0,0-.05,0-.07-.01-.47-.12-.93-.07-1.4,0-.06,0-.12,0-.19h-3.35c0,.12,0,.26,0,.4,0,.14,0,.29,0,.43s-.04.3,0,.42c.09.23.07.46.06.69,0,.15.07.26.08.4.01.13-.03.26.05.41.07.12.05.31.07.46.08.51.22,1,.37,1.49.17.52.36,1.04.62,1.53.26.48.55.95.88,1.38.24.31.48.62.76.9.44.42.92.79,1.43,1.12.24.16.5.29.75.43.43.23.88.39,1.33.57.29.11.6.14.89.28.12.05.28-.02.39.08.4,0,.79.11,1.19.16.45.05.89.04,1.33.05.45.01.9,0,1.36,0h22.97v.36c0,3.06,0,6.11,0,9.17,0,.16.05.32-.05.48-.08.14.05.33-.09.46,0,.31-.11.59-.21.88-.13.35-.28.69-.47,1.02-.34.58-.76,1.07-1.25,1.51-.43.38-.9.71-1.43.93-.43.18-.86.35-1.33.4-.14.02-.3.02-.43.07-.15.06-.29.06-.44.06-.15,0-.31,0-.46,0-12.64,0-25.29,0-37.93,0-.16,0-.31.04-.48-.06-.12-.07-.3.05-.43-.08-.3,0-.57-.11-.84-.2-.19-.06-.37-.15-.55-.21-.19-.07-.35-.2-.53-.28-.17-.09-.33-.2-.47-.31-.42-.32-.82-.68-1.15-1.11-.26-.34-.51-.68-.7-1.07-.23-.47-.41-.97-.5-1.51-.02-.14-.02-.3-.07-.43-.05-.15-.06-.29-.06-.44,0-.15,0-.31,0-.46v-25.22c.09,0,.18-.01.27-.01,8.35,0,16.7,0,25.05,0,.29,0,.58.09.87.12.42.05.8.2,1.19.32.41.13.79.35,1.15.57.47.29.87.67,1.22,1.09.37.44.7.91.93,1.43.24.56.47,1.12.58,1.72.05.25.11.51.15.76.03.19.02.4.07.58.06.21.06.41.06.62,0,.2,0,.4,0,.62h3.34c0-.07,0-.16.01-.25.05-.59-.06-1.17-.08-1.75,0-.18-.05-.36-.07-.54-.02-.17-.02-.36-.08-.5-.07-.16-.02-.33-.12-.49-.08-.12-.05-.31-.08-.46-.03-.14-.11-.27-.13-.41-.02-.14-.13-.25-.08-.4-.16-.17-.16-.41-.25-.61-.24-.52-.48-1.04-.8-1.53-.24-.36-.48-.71-.77-1.04-.16-.18-.31-.38-.48-.55-.15-.16-.34-.28-.5-.43-.16-.15-.35-.25-.52-.38-.38-.32-.82-.55-1.25-.78-.47-.24-.97-.42-1.47-.58-.38-.12-.76-.26-1.17-.28-.15-.13-.34-.02-.49-.1-.16-.08-.33,0-.48-.04-.46-.12-.93-.06-1.4-.07-.46-.01-.93,0-1.39,0H0v-.36C0,11.88,0,8.84,0,5.79c0-.16-.04-.31.06-.48.07-.12-.05-.3.08-.43,0-.32.11-.62.22-.91.13-.34.27-.67.46-.99.34-.57.76-1.08,1.25-1.51.38-.33.79-.63,1.25-.84.41-.19.83-.35,1.27-.47.2-.05.41-.05.61-.09.68-.13,1.36-.05,2.04-.07.68-.01,1.36,0,2.03,0h2.07C22.27,0,33.19,0,44.11.02c.68,0,1.36.15,2,.42.15.06.3.13.45.2.15.07.3.14.44.23.15.09.31.19.45.3.49.41.96.83,1.32,1.37.2.3.41.59.55.92.2.45.38.9.44,1.39.02.14.02.3.07.43.06.16.06.31.06.47,0,.15,0,.31,0,.46v25.13Zm-24.73-3.13c.75.01,1.5-.32,2.12-.93.56-.55.87-1.24.91-2.04.05-.94-.26-1.74-.91-2.4-.56-.57-1.26-.88-2.08-.92-.92-.04-1.72.27-2.37.91-.57.56-.89,1.26-.93,2.07-.04.92.26,1.72.9,2.37.6.6,1.34.94,2.35.94Z"/>
  </g>
</svg>